<svg width="371" height="42" viewBox="0 0 371 42" fill="none" xmlns="http://www.w3.org/2000/svg">
<path d="M20.28 33L18.28 26.36H8.96L6.96 33H0.8L10 5.08H17.52L26.6 33H20.28ZM13.68 10.6H13.48L10.4 21.2H16.8L13.68 10.6ZM30.1428 33V12H36.0628V15.56H36.3028C36.6761 14.4667 37.3295 13.52 38.2628 12.72C39.1961 11.92 40.4895 11.52 42.1428 11.52C44.3028 11.52 45.9295 12.24 47.0228 13.68C48.1428 15.12 48.7028 17.1733 48.7028 19.84V33H42.7828V20.32C42.7828 18.96 42.5695 17.96 42.1428 17.32C41.7161 16.6533 40.9561 16.32 39.8628 16.32C39.3828 16.32 38.9161 16.3867 38.4628 16.52C38.0095 16.6267 37.5961 16.8133 37.2228 17.08C36.8761 17.3467 36.5961 17.68 36.3828 18.08C36.1695 18.4533 36.0628 18.8933 36.0628 19.4V33H30.1428ZM69.4909 33C68.4243 33 67.5309 32.6667 66.8109 32C66.1176 31.3333 65.6776 30.44 65.4909 29.32H65.2509C64.9309 30.68 64.2243 31.72 63.1309 32.44C62.0376 33.1333 60.6909 33.48 59.0909 33.48C56.9843 33.48 55.3709 32.92 54.2509 31.8C53.1309 30.68 52.5709 29.2 52.5709 27.36C52.5709 25.1467 53.3709 23.5067 54.9709 22.44C56.5976 21.3467 58.7976 20.8 61.5709 20.8H64.8909V19.48C64.8909 18.4667 64.6243 17.6667 64.0909 17.08C63.5576 16.4667 62.6643 16.16 61.4109 16.16C60.2376 16.16 59.3043 16.4133 58.6109 16.92C57.9176 17.4267 57.3443 18 56.8909 18.64L53.3709 15.52C54.2243 14.2667 55.2909 13.2933 56.5709 12.6C57.8776 11.88 59.6376 11.52 61.8509 11.52C64.8376 11.52 67.0776 12.1733 68.5709 13.48C70.0643 14.7867 70.8109 16.6933 70.8109 19.2V28.4H72.7709V33H69.4909ZM61.2909 29.36C62.2776 29.36 63.1176 29.1467 63.8109 28.72C64.5309 28.2933 64.8909 27.6 64.8909 26.64V24.16H62.0109C59.6909 24.16 58.5309 24.9467 58.5309 26.52V27.12C58.5309 27.8933 58.7709 28.4667 59.2509 28.84C59.7309 29.1867 60.4109 29.36 61.2909 29.36ZM86.5175 33V5.08H105.038V10.48H92.5975V16.2H103.198V21.56H92.5975V33H86.5175ZM115.476 33C113.449 33 111.956 32.5067 110.996 31.52C110.063 30.5333 109.596 29.1067 109.596 27.24V3.4H115.516V28.4H118.156V33H115.476ZM137.225 33C136.159 33 135.265 32.6667 134.545 32C133.852 31.3333 133.412 30.44 133.225 29.32H132.985C132.665 30.68 131.959 31.72 130.865 32.44C129.772 33.1333 128.425 33.48 126.825 33.48C124.719 33.48 123.105 32.92 121.985 31.8C120.865 30.68 120.305 29.2 120.305 27.36C120.305 25.1467 121.105 23.5067 122.705 22.44C124.332 21.3467 126.532 20.8 129.305 20.8H132.625V19.48C132.625 18.4667 132.359 17.6667 131.825 17.08C131.292 16.4667 130.399 16.16 129.145 16.16C127.972 16.16 127.039 16.4133 126.345 16.92C125.652 17.4267 125.079 18 124.625 18.64L121.105 15.52C121.959 14.2667 123.025 13.2933 124.305 12.6C125.612 11.88 127.372 11.52 129.585 11.52C132.572 11.52 134.812 12.1733 136.305 13.48C137.799 14.7867 138.545 16.6933 138.545 19.2V28.4H140.505V33H137.225ZM129.025 29.36C130.012 29.36 130.852 29.1467 131.545 28.72C132.265 28.2933 132.625 27.6 132.625 26.64V24.16H129.745C127.425 24.16 126.265 24.9467 126.265 26.52V27.12C126.265 27.8933 126.505 28.4667 126.985 28.84C127.465 29.1867 128.145 29.36 129.025 29.36ZM130.345 9.84L126.825 8.12L130.785 0.359998L135.705 2.8L130.345 9.84ZM148.568 33L141.688 12H147.528L150.128 20.48L152.088 28.08H152.408L154.368 20.48L156.888 12H162.488L155.608 33H148.568ZM168.572 9.76C167.372 9.76 166.492 9.49333 165.932 8.96C165.398 8.4 165.132 7.69333 165.132 6.84V5.96C165.132 5.10667 165.398 4.41333 165.932 3.88C166.492 3.32 167.372 3.04 168.572 3.04C169.772 3.04 170.638 3.32 171.172 3.88C171.732 4.41333 172.012 5.10667 172.012 5.96V6.84C172.012 7.69333 171.732 8.4 171.172 8.96C170.638 9.49333 169.772 9.76 168.572 9.76ZM165.612 12H171.532V33H165.612V12ZM192.577 33C191.51 33 190.617 32.6667 189.897 32C189.204 31.3333 188.764 30.44 188.577 29.32H188.337C188.017 30.68 187.31 31.72 186.217 32.44C185.124 33.1333 183.777 33.48 182.177 33.48C180.07 33.48 178.457 32.92 177.337 31.8C176.217 30.68 175.657 29.2 175.657 27.36C175.657 25.1467 176.457 23.5067 178.057 22.44C179.684 21.3467 181.884 20.8 184.657 20.8H187.977V19.48C187.977 18.4667 187.71 17.6667 187.177 17.08C186.644 16.4667 185.75 16.16 184.497 16.16C183.324 16.16 182.39 16.4133 181.697 16.92C181.004 17.4267 180.43 18 179.977 18.64L176.457 15.52C177.31 14.2667 178.377 13.2933 179.657 12.6C180.964 11.88 182.724 11.52 184.937 11.52C187.924 11.52 190.164 12.1733 191.657 13.48C193.15 14.7867 193.897 16.6933 193.897 19.2V28.4H195.857V33H192.577ZM184.377 29.36C185.364 29.36 186.204 29.1467 186.897 28.72C187.617 28.2933 187.977 27.6 187.977 26.64V24.16H185.097C182.777 24.16 181.617 24.9467 181.617 26.52V27.12C181.617 27.8933 181.857 28.4667 182.337 28.84C182.817 29.1867 183.497 29.36 184.377 29.36ZM218.643 33.48C216.19 33.48 214.11 33.0667 212.403 32.24C210.697 31.3867 209.243 30.2933 208.043 28.96L212.043 24.92C213.937 27.0533 216.27 28.12 219.043 28.12C220.537 28.12 221.643 27.8133 222.363 27.2C223.083 26.5867 223.443 25.7733 223.443 24.76C223.443 23.9867 223.23 23.3467 222.803 22.84C222.377 22.3067 221.51 21.9467 220.203 21.76L217.443 21.4C214.483 21.0267 212.31 20.1333 210.923 18.72C209.563 17.3067 208.883 15.4267 208.883 13.08C208.883 11.8267 209.123 10.68 209.603 9.64C210.083 8.6 210.763 7.70667 211.643 6.96C212.55 6.21333 213.643 5.64 214.923 5.24C216.23 4.81333 217.71 4.6 219.363 4.6C221.47 4.6 223.323 4.93333 224.923 5.6C226.523 6.26667 227.897 7.24 229.043 8.52L225.003 12.6C224.337 11.8267 223.523 11.2 222.563 10.72C221.63 10.2133 220.443 9.96 219.003 9.96C217.643 9.96 216.63 10.2 215.963 10.68C215.297 11.16 214.963 11.8267 214.963 12.68C214.963 13.64 215.217 14.3333 215.723 14.76C216.257 15.1867 217.11 15.4933 218.283 15.68L221.043 16.12C223.923 16.5733 226.057 17.4667 227.443 18.8C228.83 20.1067 229.523 21.9733 229.523 24.4C229.523 25.7333 229.283 26.96 228.803 28.08C228.323 29.2 227.617 30.16 226.683 30.96C225.777 31.76 224.643 32.3867 223.283 32.84C221.923 33.2667 220.377 33.48 218.643 33.48ZM249.764 33C248.698 33 247.804 32.6667 247.084 32C246.391 31.3333 245.951 30.44 245.764 29.32H245.524C245.204 30.68 244.498 31.72 243.404 32.44C242.311 33.1333 240.964 33.48 239.364 33.48C237.258 33.48 235.644 32.92 234.524 31.8C233.404 30.68 232.844 29.2 232.844 27.36C232.844 25.1467 233.644 23.5067 235.244 22.44C236.871 21.3467 239.071 20.8 241.844 20.8H245.164V19.48C245.164 18.4667 244.898 17.6667 244.364 17.08C243.831 16.4667 242.938 16.16 241.684 16.16C240.511 16.16 239.578 16.4133 238.884 16.92C238.191 17.4267 237.618 18 237.164 18.64L233.644 15.52C234.498 14.2667 235.564 13.2933 236.844 12.6C238.151 11.88 239.911 11.52 242.124 11.52C245.111 11.52 247.351 12.1733 248.844 13.48C250.338 14.7867 251.084 16.6933 251.084 19.2V28.4H253.044V33H249.764ZM241.564 29.36C242.551 29.36 243.391 29.1467 244.084 28.72C244.804 28.2933 245.164 27.6 245.164 26.64V24.16H242.284C239.964 24.16 238.804 24.9467 238.804 26.52V27.12C238.804 27.8933 239.044 28.4667 239.524 28.84C240.004 29.1867 240.684 29.36 241.564 29.36ZM257.018 33V12H262.938V15.56H263.178C263.551 14.4667 264.204 13.52 265.138 12.72C266.071 11.92 267.364 11.52 269.018 11.52C271.178 11.52 272.804 12.24 273.898 13.68C275.018 15.12 275.578 17.1733 275.578 19.84V33H269.658V20.32C269.658 18.96 269.444 17.96 269.018 17.32C268.591 16.6533 267.831 16.32 266.738 16.32C266.258 16.32 265.791 16.3867 265.338 16.52C264.884 16.6267 264.471 16.8133 264.098 17.08C263.751 17.3467 263.471 17.68 263.258 18.08C263.044 18.4533 262.938 18.8933 262.938 19.4V33H257.018ZM288.206 33C286.153 33 284.593 32.48 283.526 31.44C282.486 30.4 281.966 28.88 281.966 26.88V16.6H279.006V12H280.486C281.286 12 281.833 11.8133 282.126 11.44C282.419 11.04 282.566 10.48 282.566 9.76V6.32H287.886V12H292.046V16.6H287.886V28.4H291.726V33H288.206ZM299.118 9.76C297.918 9.76 297.038 9.49333 296.478 8.96C295.945 8.4 295.678 7.69333 295.678 6.84V5.96C295.678 5.10667 295.945 4.41333 296.478 3.88C297.038 3.32 297.918 3.04 299.118 3.04C300.318 3.04 301.185 3.32 301.718 3.88C302.278 4.41333 302.558 5.10667 302.558 5.96V6.84C302.558 7.69333 302.278 8.4 301.718 8.96C301.185 9.49333 300.318 9.76 299.118 9.76ZM296.158 12H302.078V33H296.158V12ZM323.124 33C322.057 33 321.164 32.6667 320.444 32C319.75 31.3333 319.31 30.44 319.124 29.32H318.884C318.564 30.68 317.857 31.72 316.764 32.44C315.67 33.1333 314.324 33.48 312.724 33.48C310.617 33.48 309.004 32.92 307.884 31.8C306.764 30.68 306.204 29.2 306.204 27.36C306.204 25.1467 307.004 23.5067 308.604 22.44C310.23 21.3467 312.43 20.8 315.204 20.8H318.524V19.48C318.524 18.4667 318.257 17.6667 317.724 17.08C317.19 16.4667 316.297 16.16 315.044 16.16C313.87 16.16 312.937 16.4133 312.244 16.92C311.55 17.4267 310.977 18 310.524 18.64L307.004 15.52C307.857 14.2667 308.924 13.2933 310.204 12.6C311.51 11.88 313.27 11.52 315.484 11.52C318.47 11.52 320.71 12.1733 322.204 13.48C323.697 14.7867 324.444 16.6933 324.444 19.2V28.4H326.404V33H323.124ZM314.924 29.36C315.91 29.36 316.75 29.1467 317.444 28.72C318.164 28.2933 318.524 27.6 318.524 26.64V24.16H315.644C313.324 24.16 312.164 24.9467 312.164 26.52V27.12C312.164 27.8933 312.404 28.4667 312.884 28.84C313.364 29.1867 314.044 29.36 314.924 29.36ZM349.817 34.52C349.817 35.64 349.617 36.6267 349.217 37.48C348.844 38.3333 348.217 39.0533 347.337 39.64C346.457 40.2533 345.284 40.7067 343.817 41C342.377 41.32 340.591 41.48 338.457 41.48C336.644 41.48 335.097 41.36 333.817 41.12C332.564 40.9067 331.537 40.5867 330.737 40.16C329.964 39.76 329.391 39.2533 329.017 38.64C328.671 38.0533 328.497 37.3733 328.497 36.6C328.497 35.4267 328.844 34.5067 329.537 33.84C330.231 33.1733 331.191 32.76 332.417 32.6V32.16C331.404 31.9733 330.644 31.5467 330.137 30.88C329.631 30.1867 329.377 29.3867 329.377 28.48C329.377 27.92 329.484 27.44 329.697 27.04C329.937 26.6133 330.231 26.2533 330.577 25.96C330.951 25.64 331.377 25.3867 331.857 25.2C332.337 25.0133 332.817 24.8667 333.297 24.76V24.6C332.017 24.0133 331.071 23.2133 330.457 22.2C329.844 21.16 329.537 19.96 329.537 18.6C329.537 16.4667 330.271 14.76 331.737 13.48C333.231 12.1733 335.497 11.52 338.537 11.52C339.924 11.52 341.111 11.6533 342.097 11.92V11.12C342.097 10 342.364 9.2 342.897 8.72C343.457 8.21333 344.244 7.96 345.257 7.96H348.577V12.36H343.937V12.6C345.164 13.1867 346.071 14 346.657 15.04C347.244 16.0533 347.537 17.24 347.537 18.6C347.537 20.7067 346.791 22.4 345.297 23.68C343.831 24.9333 341.577 25.56 338.537 25.56C337.177 25.56 335.937 25.4133 334.817 25.12C334.204 25.52 333.897 26.08 333.897 26.8C333.897 27.3067 334.084 27.7067 334.457 28C334.857 28.2667 335.511 28.4 336.417 28.4H342.497C345.057 28.4 346.911 28.9333 348.057 30C349.231 31.0667 349.817 32.5733 349.817 34.52ZM344.257 35.32C344.257 34.7067 344.017 34.24 343.537 33.92C343.057 33.6 342.217 33.44 341.017 33.44H333.817C333.551 33.7067 333.351 34 333.217 34.32C333.111 34.6667 333.057 35 333.057 35.32C333.057 36.0933 333.391 36.6533 334.057 37C334.724 37.3733 335.857 37.56 337.457 37.56H339.857C341.457 37.56 342.591 37.3733 343.257 37C343.924 36.6533 344.257 36.0933 344.257 35.32ZM338.537 21.68C339.711 21.68 340.577 21.44 341.137 20.96C341.724 20.4533 342.017 19.7333 342.017 18.8V18.32C342.017 17.3867 341.724 16.68 341.137 16.2C340.577 15.6933 339.711 15.44 338.537 15.44C337.364 15.44 336.484 15.6933 335.897 16.2C335.337 16.68 335.057 17.3867 335.057 18.32V18.8C335.057 19.7333 335.337 20.4533 335.897 20.96C336.484 21.44 337.364 21.68 338.537 21.68ZM360.733 33.48C359.186 33.48 357.8 33.2267 356.573 32.72C355.373 32.2133 354.346 31.48 353.493 30.52C352.666 29.56 352.026 28.4 351.573 27.04C351.12 25.68 350.893 24.16 350.893 22.48C350.893 20.8 351.12 19.28 351.573 17.92C352.026 16.56 352.666 15.4133 353.493 14.48C354.346 13.52 355.373 12.7867 356.573 12.28C357.8 11.7733 359.186 11.52 360.733 11.52C362.28 11.52 363.653 11.7733 364.853 12.28C366.08 12.7867 367.106 13.52 367.933 14.48C368.786 15.4133 369.44 16.56 369.893 17.92C370.346 19.28 370.573 20.8 370.573 22.48C370.573 24.16 370.346 25.68 369.893 27.04C369.44 28.4 368.786 29.56 367.933 30.52C367.106 31.48 366.08 32.2133 364.853 32.72C363.653 33.2267 362.28 33.48 360.733 33.48ZM360.733 28.8C361.906 28.8 362.813 28.44 363.453 27.72C364.093 27 364.413 25.9733 364.413 24.64V20.36C364.413 19.0267 364.093 18 363.453 17.28C362.813 16.56 361.906 16.2 360.733 16.2C359.56 16.2 358.653 16.56 358.013 17.28C357.373 18 357.053 19.0267 357.053 20.36V24.64C357.053 25.9733 357.373 27 358.013 27.72C358.653 28.44 359.56 28.8 360.733 28.8Z" fill="black"/>
</svg>
