<svg width="79" height="84" viewBox="0 0 79 84" fill="none" xmlns="http://www.w3.org/2000/svg">
<rect x="2.5" y="2.5" width="30" height="30" rx="2.5" fill="#FFCC49" fill-opacity="0.95" stroke="#292929" stroke-width="5"/>
<rect x="2.5" y="41.5" width="23" height="22" rx="2.5" fill="#FFCC49" fill-opacity="0.95" stroke="#292929" stroke-width="5"/>
<rect x="41.5" y="2.5" width="22" height="23" rx="2.5" fill="#F0AD00" stroke="#292929" stroke-width="5"/>
<path d="M38.6432 41.5679L50.179 72.9252C50.7053 74.3557 52.5717 74.6916 53.6208 73.586C55.1296 71.9961 56.5303 70.7381 58.4235 69.2815C59.2254 68.6645 60.3633 68.7739 61.0545 69.5128L69.2031 78.2242C69.9561 79.0291 71.2183 79.0731 72.0255 78.3227L75.5065 75.0867C76.3173 74.3329 76.3616 73.064 75.6054 72.2556L67.4827 63.572C66.784 62.8251 66.7582 61.6676 67.4468 60.9115C68.963 59.2465 70.3018 57.975 72.0287 56.5431C73.1838 55.5854 72.9808 53.7383 71.6198 53.1066L41.3622 39.0632C39.7445 38.3124 38.0274 39.8941 38.6432 41.5679Z" fill="#F0AD00" stroke="#292929" stroke-width="5"/>
</svg>
