<svg width="495" height="638" viewBox="0 0 495 638" fill="none" xmlns="http://www.w3.org/2000/svg">
<rect x="264.93" y="382.051" width="99.7843" height="117.362" fill="black"/>
<path fill-rule="evenodd" clip-rule="evenodd" d="M235.825 267.258C246.582 259.435 273.586 255.917 285.066 263.45C296.404 271.014 297.641 283.246 302.924 294.498C307.91 292.253 316.142 295.469 317.588 299.887C319.38 301.971 319.461 307.825 320.697 310.626C374.486 318.804 382.652 358.856 389.126 404.327C397.691 450.468 417.134 496.509 408.693 543.989C409.793 545.508 410.66 546.986 411.462 548.741C413.383 551.863 410.909 556.282 407.033 556.111C402.018 555.69 397.052 555.116 392.012 554.937C378.043 554.473 364.06 554.528 350.085 554.698L348.179 554.722C277.75 555.559 207.324 557.209 136.891 557.647C134.336 557.65 133.085 555.462 133.426 553.303C134.113 548.956 134.75 544.607 135.416 540.258C118.757 544.46 101.046 545.518 84.4342 540.7C83.2721 539.569 87.1419 540.182 87.7559 540.01C72.4675 530.032 77.0332 509.012 78.3875 493.873C86.8086 441.996 89.7772 384.597 122.313 340.33C136.389 322.264 157.025 307.961 180.738 304.743L181.396 304.657C188.329 303.774 196.057 303.489 202.119 299.887C208.937 294.688 211.842 285.083 219.015 284.993C221.384 284.963 224.606 287.825 228.073 289.768C228.332 285.493 230.744 281.886 231.276 278.572L231.319 278.289C231.875 274.425 231.114 270.949 235.825 267.258ZM351.422 405.698C336.306 395.668 297.258 400.707 296.364 401.269C294.396 402.505 293.548 402.615 292.484 404.22C291.433 404.354 290.383 404.492 289.333 404.634C287.228 405.291 288.788 407.764 291.22 406.881C289.757 412.905 294.061 417.189 295.774 423.145C296.331 425.078 295.794 428.556 295.774 430.532C295.941 433.051 298.857 436.026 298.371 438.553C296.643 447.538 287.266 456.303 291.22 465.017C293.838 469.938 301.715 472.447 306.952 474.12C317.801 478.097 336.705 473.971 343.009 465.017C346.371 460.241 350.267 448.193 352.272 444.456L352.716 438.528C353.812 423.793 354.787 407.93 351.422 405.698Z" fill="white"/>
<path fill-rule="evenodd" clip-rule="evenodd" d="M218.456 285.019L222.782 287.555L247.906 299.417C252.777 300.719 255.212 302.28 255.212 304.1V322.628C255.212 325.107 259.783 330.727 268.924 339.486L277.369 331.444L277.18 330.392C276.377 325.855 275.975 322.821 275.975 321.288C275.975 319.64 284.237 313.382 300.762 302.516L307.991 296.015L307.221 293.776C311.678 293.977 316.512 296.599 317.588 299.887C319.38 301.971 319.461 307.825 320.697 310.626C374.486 318.804 382.652 358.856 389.126 404.327C397.691 450.468 417.134 496.509 408.693 543.989C409.793 545.508 410.66 546.986 411.462 548.741C413.383 551.863 410.909 556.282 407.033 556.111C402.018 555.69 397.052 555.116 392.012 554.937C378.043 554.473 364.06 554.528 350.085 554.698L348.179 554.722C277.75 555.559 207.324 557.209 136.891 557.647C134.336 557.65 133.085 555.462 133.426 553.303C134.113 548.956 134.75 544.607 135.416 540.258C118.757 544.46 101.046 545.518 84.4342 540.7C83.2721 539.569 87.1419 540.182 87.7559 540.01C72.4675 530.032 77.0332 509.012 78.3875 493.873C86.8086 441.996 89.7772 384.597 122.313 340.33C136.389 322.264 157.025 307.961 180.738 304.743L181.396 304.657L182.058 304.574C188.818 303.752 196.249 303.375 202.119 299.887C208.757 294.825 211.686 285.587 218.456 285.019ZM278.656 393.769C276.192 393.769 271.146 397.424 263.516 404.734L262.844 405.03C253.622 409.122 247.512 412.671 244.516 415.678L244.409 415.786C241.381 418.888 235.386 427.137 226.423 440.532L213.444 447.863H208.533L205.037 472.086L213.444 489.382L232.488 483.255L263.516 475.444L281.322 458.191L291.365 454.971C290.147 458.333 289.705 461.679 291.22 465.017C293.838 469.938 301.715 472.447 306.952 474.12C317.801 478.097 336.705 473.971 343.009 465.017C346.371 460.241 350.267 448.193 352.272 444.456L352.847 436.756C353.883 422.546 354.652 407.841 351.422 405.698C336.306 395.668 297.258 400.707 296.364 401.269C294.396 402.505 293.548 402.615 292.484 404.22L291.933 404.291L295.032 400.277L293.934 399.717C286.105 395.752 281.012 393.769 278.656 393.769ZM291.22 406.881C289.82 412.648 293.704 416.821 295.542 422.392L290.847 413.808L290.847 406.993C290.969 406.964 291.093 406.927 291.22 406.881Z" fill="#F0AD00"/>
<path fill-rule="evenodd" clip-rule="evenodd" d="M216.381 284.124C217.425 283.241 218.969 284.35 218.306 285.542C216.816 288.222 215.287 290.761 213.287 293.13C212.074 294.566 210.775 295.925 209.459 297.268C212.837 300.059 215.735 303.525 218.471 306.773C221.969 310.927 225.277 315.257 229.204 319.058C233.077 322.806 237.36 325.427 242.538 327.174L243.584 327.521C248.786 329.265 254.346 331.621 257.278 336.325C257.856 337.252 256.692 338.399 255.713 337.82C250.618 334.807 244.632 334.201 239.085 332.21C233.728 330.286 229.058 327.327 224.931 323.549C220.812 319.778 217.353 315.487 213.745 311.287C210.177 307.134 206.336 303.587 202.116 300.073C195.603 304.257 188.17 306.078 180.611 307.866L179.786 308.061C172.218 309.851 164.69 311.929 157.59 315.046C151.331 317.793 145.174 321.074 140.075 325.544C134.662 330.289 130.449 336.348 126.593 342.274C117.968 355.532 111.904 370.056 106.566 384.757C101.014 400.049 96.3699 415.646 92.6208 431.429C90.714 439.457 89.1654 447.542 87.8926 455.684C87.2799 459.605 86.7357 463.534 86.2577 467.473C85.7474 471.678 85.6302 476.005 84.2794 480.048C83.7003 481.781 82.333 482.5 80.9643 482.439L80.6863 485.76C80.3177 490.187 79.9741 494.616 79.858 499.071C79.6654 506.478 79.7527 513.863 80.3106 521.255L80.3896 522.263C80.8279 527.657 81.8075 533.719 86.0546 537.668C90.453 541.76 97.217 543.046 103.145 543.12C116.952 543.291 130.243 537.06 142.462 531.594C155.045 525.964 167.284 519.715 179.231 512.938C185.314 509.487 191.332 505.921 197.274 502.251C200.189 500.449 203.084 498.617 205.957 496.755C207.603 495.689 209.163 494.52 210.838 493.574C210.017 492.844 209.651 491.696 210.338 490.694C205.495 486.679 203.479 479.514 203.244 473.716C203.053 469.036 203.774 464.369 204.344 459.733C204.631 457.396 204.985 455.062 205.354 452.735C205.499 451.816 205.61 450.832 205.78 449.862C192.702 456.726 179.258 462.839 165.458 468.269C158.384 471.053 151.219 473.556 143.956 475.85L142.484 476.312C135.602 478.464 128.555 480.496 121.441 481.726C121.06 481.792 120.751 481.256 121.157 481.085C128.091 478.163 135.264 475.698 142.302 473.007L143.459 472.557C143.326 472.55 143.188 472.533 143.044 472.5C138.917 471.548 134.822 470.082 130.774 468.848C127.017 467.702 122.796 466.982 119.284 465.253C119.014 465.12 119.165 464.761 119.428 464.744C123.375 464.482 127.66 465.581 131.53 466.227L132.983 466.471C135.419 466.881 137.908 467.322 140.332 467.897C140.419 467.121 140.873 466.343 141.518 465.886C148.619 460.863 147.898 450.719 148.658 443.238L149.221 437.684C150.212 427.964 151.26 418.245 152.852 408.598C152.937 408.083 153.771 408.231 153.775 408.717C153.857 420.676 152.912 432.58 152.438 444.52L152.364 446.478C152.103 453.846 151.897 461.496 147.039 467.165C147.718 466.786 148.637 466.786 149.187 467.411C149.863 468.18 150.254 469.043 150.242 469.89C154.632 468.132 159.003 466.328 163.352 464.488C177.336 458.571 191.027 451.949 204.356 444.784C205.791 444.013 207.154 444.619 207.863 445.635L207.966 445.621C207.983 445.619 208 445.618 208.018 445.617L208.12 445.613C208.124 445.613 208.127 445.613 208.131 445.613C210.007 444.629 212.563 445.33 214.173 446.766C214.221 446.809 214.261 446.856 214.304 446.902C216.342 446.028 218.245 444.848 219.973 443.353C223.507 440.293 226.501 436.51 229.111 432.716C233.918 425.728 238.001 417.958 244.494 412.206C249.769 407.532 256.31 404.623 263.171 402.796C263.143 402.605 263.219 402.401 263.358 402.265C263.71 401.92 263.962 401.801 264.417 402.01C264.453 402.027 264.475 402.05 264.49 402.075L265.16 400.983C265.525 400.39 265.9 399.793 266.03 399.636C266.809 398.699 267.611 397.769 268.425 396.859C269.805 395.318 271.378 393.797 273.199 392.728C277.186 390.389 281.377 391.713 285.476 392.991C287.953 393.764 290.421 394.562 292.894 395.347L293.149 395.426C294.992 395.992 297.149 396.487 297.974 398.352C298.3 399.091 298.351 399.857 298.199 400.6C315.709 396.347 335.156 398.301 352.243 403.294C352.899 403.485 353.554 404 353.692 404.677C355.65 414.266 356.522 424.1 355.636 433.853C354.871 442.271 352.918 450.521 349.238 458.228L349.029 458.663C345.57 465.806 340.089 474.611 331.717 476.85C326.662 478.201 321.071 477.404 315.915 477.157C310.904 476.916 305.783 476.881 300.82 476.128C296.4 475.458 292.527 473.566 289.795 470.133C287.439 467.172 286.198 463.593 285.181 460.032C284.716 460.174 284.253 460.324 283.798 460.494C281.878 461.21 280.251 462.367 278.78 463.727C275.674 466.6 273.264 470.09 270.014 472.832C267.072 475.314 263.719 477.244 260.123 478.728C252.671 481.803 244.677 483.032 236.795 484.662L236.245 484.777C230.311 486.02 224.255 487.547 219.017 490.498C218.915 491.366 218.5 492.184 217.836 492.719C218.76 493.547 219.151 494.86 218.339 496.091C216.072 499.528 212.166 501.483 208.66 503.681L208.432 503.825C204.982 506.009 201.503 508.15 197.995 510.247C190.864 514.511 183.584 518.541 176.202 522.393C164.327 528.588 152.198 534.433 139.849 539.734C140.59 543.217 140.32 546.808 140.877 550.314L140.962 550.814C141.2 552.115 140.879 553.204 139.94 554.054L139.841 554.141L139.843 554.13L139.755 554.207L139.725 554.23L139.735 554.223C139.627 554.317 139.515 554.405 139.402 554.481L139.257 554.57C138.353 555.094 137.189 555.088 136.264 554.625L136.158 554.57L135.98 554.472C134.758 553.801 133.915 552.136 134.422 550.814C135.668 547.565 136.139 544.097 137.291 540.826L136.377 541.216L135.174 541.717C122.155 547.094 107.693 551.622 93.508 547.956C87.2403 546.336 81.3822 542.909 78.2462 537.323C75.1603 531.827 74.7241 525.446 74.5603 519.332C74.3581 511.786 74.7816 504.125 75.8235 496.645C76.5228 491.623 77.3686 486.507 78.6732 481.537C78.0022 480.971 77.5089 480.16 77.3786 479.156C76.7629 474.409 77.8405 469.475 78.5002 464.753C79.1447 460.142 79.8567 455.541 80.6619 450.954C82.2877 441.69 84.1766 432.446 86.3758 423.291C90.2896 406.997 95.4579 390.993 101.68 375.371L102.225 374.011C107.975 359.732 114.632 345.758 123.903 333.214C128.337 327.213 133.025 321.772 139.291 317.447C145.161 313.395 151.782 310.478 158.616 308.248C165.456 306.017 172.487 304.521 179.643 303.591C186.91 302.646 194.58 302.067 201.359 299.22C200.501 297.752 201.237 295.77 202.68 294.859C207.537 291.795 212.028 287.808 216.381 284.124ZM371.856 417.393C372.059 417.097 372.542 417.284 372.453 417.633C370.091 426.876 367.873 436.138 366.425 445.557C363.812 462.558 364.292 479.78 364.506 496.907L364.517 497.793C364.627 507.018 364.779 516.243 365.099 525.465C365.26 530.125 365.579 534.831 365.405 539.494C365.311 542.024 364.605 544.416 364.355 546.915C364.136 549.101 364.331 551.32 364.44 553.508C364.513 554.963 362.265 554.901 362.112 553.508L361.916 551.706C361.662 549.426 361.348 547.16 360.566 544.978C359.625 542.353 359.174 539.775 358.847 537.019C358.348 532.796 358.125 528.531 357.932 524.278L357.8 521.336C356.995 503.564 357.023 485.708 358.327 467.954L358.423 466.686C359.714 449.904 361.955 431.771 371.856 417.393ZM321.504 311.622C320.887 311.38 321.103 310.489 321.786 310.644L323.029 310.927C332.133 313.01 341.073 315.267 349.571 319.143C358.074 323.021 365.273 328.81 370.994 335.929C382.114 349.768 386.735 366.585 390.383 383.387C394.437 402.057 398.128 420.796 402.218 439.46L402.977 442.937C406.761 460.32 410.333 477.714 412.966 495.303L413.155 496.579C415.81 514.667 417.406 533.381 414.51 551.515C413.937 555.103 407.686 554.21 407.93 550.665C408.636 540.418 409.141 530.224 408.653 519.953C408.164 509.681 407.155 499.453 405.652 489.271C404.386 480.701 402.5 472.239 400.83 463.738L400.569 462.395C399.171 455.165 397.73 447.941 396.292 440.718L394.143 429.902C390.922 413.707 387.639 397.498 383.929 381.405L383.708 380.458C380.078 364.976 374.724 348.758 363.833 336.463C352.781 323.985 336.959 317.702 321.504 311.622ZM281.343 475.845C281.609 475.279 282.539 475.341 282.824 475.845C283.944 477.819 284.069 480.338 284.281 482.566L284.303 482.796C284.572 485.515 284.811 488.243 284.957 490.97C285.233 496.147 285.366 501.317 285.349 506.501C285.331 511.813 285.219 517.119 284.919 522.423L284.838 523.844C284.564 528.453 284.105 533.595 281.812 537.625C280.979 539.09 278.712 538.659 278.229 537.178C276.647 532.327 277.459 526.575 277.865 521.607L278.18 517.73C278.492 513.853 278.789 509.974 279.025 506.092C279.349 500.782 279.615 495.466 279.872 490.153C279.955 488.427 280.045 486.701 280.141 484.975L280.287 482.387C280.412 480.222 280.402 477.846 281.343 475.845ZM103.497 482.72L104.197 482.074C106.347 480.065 109.063 476.971 112.241 477.163C113.508 477.239 114.315 478.244 114.052 479.435C113.491 481.98 110.773 483.301 108.816 484.855C106.672 486.557 104.651 488.376 102.635 490.212C100.846 491.841 99.1251 493.516 97.4458 495.243L96.818 495.893C96.216 496.52 91.9296 500.223 92.3931 501.184L92.4183 501.227C92.5473 501.411 92.3325 501.664 92.1185 501.599C90.2675 501.041 90.383 499.526 91.0828 497.99C92.4275 495.04 94.7822 492.311 96.8384 489.792C98.8891 487.279 101.109 484.939 103.497 482.72ZM288.05 408.743C286.619 405.512 281.346 405.58 278.353 405.773C270.814 406.26 262.658 408.081 255.951 411.446C248.997 414.935 244.313 420.525 240.122 426.707L239.926 426.997C235.841 433.062 231.906 440.241 225.51 444.411C222.252 446.536 218.447 448.476 214.494 449.316C214.223 449.772 213.783 450.133 213.206 450.264L212.938 450.322C211.813 450.56 210.064 450.822 208.553 450.665C208.563 451.371 208.555 452.072 208.574 452.74C208.627 454.657 208.649 456.582 208.649 458.499C208.65 462.518 208.424 466.544 208.6 470.562C208.755 474.115 209.281 477.828 211.067 481.005C212.378 483.336 214.107 484.878 216.195 486.351C221.33 483.361 227.137 481.539 233.031 480.169C240.159 478.512 247.457 477.406 254.423 475.16C257.776 474.078 260.999 472.663 263.919 470.741C267.019 468.699 269.386 465.937 271.822 463.236L272.202 462.816C274.688 460.093 277.401 457.488 280.914 456.012C283.939 454.74 287.927 454.513 290.572 452.546C291.955 451.516 292.071 450.022 292.216 448.492C290.522 448.723 288.729 448.353 287.04 448.164L286.165 448.066C284.569 447.884 283.009 447.685 281.437 447.297C281.145 447.225 281.145 446.805 281.437 446.733C283.295 446.275 285.136 446.08 287.04 445.866L287.488 445.813C289.211 445.597 291.022 445.272 292.712 445.634C293.015 444.532 293.453 443.48 294.068 442.426C294.93 440.946 296.562 439.267 296.782 437.538C296.848 437.021 296.722 436.413 296.467 435.956L296.379 435.8C296.272 435.617 296.145 435.432 295.959 435.317C295.939 435.34 295.895 435.366 295.801 435.395C294.5 435.786 293.366 435.178 292.763 434.241C290.207 434.543 287.417 434.442 285.019 434.543L282.595 434.655C280.005 434.768 277.298 434.818 274.864 434.318C274.524 434.248 274.421 433.708 274.761 433.569C277.753 432.347 281.383 431.957 284.587 431.488C286.376 431.225 288.178 431.025 289.972 430.794C291.167 430.64 292.435 430.386 293.673 430.325C296.777 426.634 295.105 420.813 290.785 419.224C289.212 419.884 287.797 419.5 286.078 419.359C284.362 419.219 282.642 419.123 280.919 419.13C277.466 419.145 273.808 420.012 270.389 419.639C269.833 419.578 269.316 418.871 269.869 418.44C272.486 416.4 276.237 415.735 279.559 415.3L280.247 415.212C281.361 415.073 282.715 414.87 284.12 414.748C284.438 414.157 285.008 413.709 285.864 413.598C286.118 413.565 286.374 413.545 286.629 413.524L286.626 413.5C288.714 413.405 288.623 410.036 288.05 408.743ZM145.098 471.763C145.061 471.817 145.02 471.869 144.978 471.919L144.911 471.992L145.255 471.859L145.098 471.763ZM324.488 401.523C315.699 400.621 306.897 400.811 298.082 401.054C297.377 403.256 294.923 405.133 292.545 405.204C294.408 407.911 294.6 411.575 293.294 414.446C296.067 415.5 298.455 417.394 299.906 420.091C301.916 423.829 301.653 427.99 299.666 431.445C301.362 432.911 302.363 435.293 302.263 437.538C302.151 440.041 300.589 442.18 299.291 444.252C297.888 446.494 297.841 448.467 297.41 450.978C296.78 454.652 294.185 456.88 290.847 458.271L291.024 458.938C291.885 462.138 292.956 465.514 295.416 467.854C298.58 470.863 303.489 470.835 307.67 471.026L307.871 471.036C311.7 471.218 315.526 471.433 319.353 471.64L322.223 471.793C326.629 472.024 330.861 472.052 334.458 469.27C340.33 464.729 344.356 457.213 346.904 450.56C352.253 436.594 352.317 421.269 349.862 406.724C341.628 404.19 333.086 402.405 324.488 401.523ZM251.397 424.692L251.462 424.697C253.272 424.894 254.515 426.294 254.957 427.954C255.601 430.367 255.285 432.548 256.832 434.727C258.424 436.967 259.403 438.76 259.634 441.527C259.729 442.666 259.686 443.801 259.951 444.916L260.143 445.697C260.348 446.529 260.515 447.331 260.413 448.225C260.321 449.041 259.905 449.676 259.049 449.937C256.259 450.789 254.104 448.826 253.384 446.343C252.761 444.198 253.592 441.641 252.714 439.627C252.227 438.511 251.33 437.577 250.822 436.453C250.32 435.338 250.068 434.174 249.987 432.963C249.834 430.673 251.955 427.921 250.772 425.845C250.52 425.402 250.805 424.679 251.397 424.692ZM214.337 401.054C216.226 400.688 218.369 399.847 220.233 400.546C221.19 400.905 221.663 402.021 220.854 402.796C219.449 404.141 217.408 404.216 215.515 404.533L215.349 404.562C213.111 404.957 210.87 405.332 208.625 405.688C204.403 406.355 200.17 406.946 195.922 407.448C191.56 407.964 187.185 408.423 182.804 408.768L181.108 408.901C177.407 409.184 173.557 409.397 169.926 408.855C169.398 408.777 169.483 408.043 169.926 407.915C173.903 406.765 178.267 406.456 182.379 405.97C186.752 405.452 191.116 404.904 195.47 404.255C199.816 403.607 204.157 402.911 208.482 402.142C210.437 401.795 212.388 401.432 214.337 401.054ZM282.51 397.362C280.852 396.802 279.028 395.971 277.231 396.249C274.133 396.728 271.376 399.611 268.924 401.51L270.155 401.281C276.455 400.125 284.799 398.879 290.088 402.705C290.101 402.683 290.112 402.661 290.127 402.638C290.554 402.019 291.049 401.536 291.589 401.006C291.64 400.96 291.69 400.912 291.739 400.863L292.03 400.567L291.364 400.346C289.937 399.865 288.247 399.243 287.98 399.152L287.961 399.146C286.142 398.557 284.32 397.975 282.51 397.362ZM230.743 271.23C230.484 268.045 235.674 268.071 235.931 271.23C236.492 278.126 234.867 284.956 231.37 291.002C231.344 291.046 231.316 291.085 231.289 291.127C233.476 292.214 235.689 293.257 237.95 294.189C240.843 295.382 243.79 296.468 246.79 297.39C249.504 298.224 252.848 298.553 255.129 300.288C259.94 303.947 258.133 311.541 257.207 316.463L257.063 317.24C256.602 319.773 256.269 322.372 257.387 324.802C258.581 327.399 260.995 329.325 263.149 331.183L263.584 331.56C265.492 333.22 267.672 335.237 269.072 337.488C270.349 334.965 272.091 332.903 273.933 330.582C275.246 328.926 274.311 328.38 273.367 326.762C272.459 325.204 272.015 323.544 272.299 321.768C272.824 318.486 275.569 316.116 278.302 314.336C281.53 312.233 285.132 310.676 288.468 308.72C295.324 304.703 302.001 300.109 308.017 295.007C308.183 294.866 308.47 295.051 308.337 295.243C303.585 302.147 298.014 308.112 291.166 313.175C288.389 315.228 285.473 316.931 282.536 318.721L281.692 319.238C280.513 319.968 279.043 320.943 278.51 322.185C277.973 323.434 279.117 324.377 279.733 325.411C281.688 328.697 280.745 331.762 278.427 334.549L278.319 334.677C276.015 337.388 274.27 339.909 273.435 343.373C271.641 350.813 274.14 358.562 276.755 365.547L276.859 365.822C278.273 369.587 279.777 373.324 281.006 377.149L281.345 378.207C282.458 381.726 283.37 385.197 282.121 388.815C281.696 390.046 279.939 390.337 279.209 389.179C276.634 385.094 275.992 380.179 274.378 375.689C272.805 371.312 270.999 367.015 269.48 362.62C267.523 356.962 266.214 350.872 266.925 344.937C266.904 344.903 266.881 344.87 266.863 344.834L266.365 343.793C265.007 340.976 263.695 338.515 261.226 336.27C258.649 333.927 255.853 331.853 253.826 329.017C249.423 322.857 252.146 316.005 252.678 309.27L252.739 308.444C252.836 307.045 252.889 305.145 251.932 304.177C250.856 303.087 248.333 302.809 246.906 302.327C243.217 301.08 239.581 299.627 236.119 297.883C232.823 296.222 229.63 294.388 226.658 292.239L225.151 291.156C222.774 289.443 220.309 287.572 218.716 285.24C218.532 284.972 218.844 284.538 219.177 284.667C221.837 285.698 224.267 287.338 226.755 288.764C226.794 288.677 226.839 288.59 226.89 288.501C229.969 283.179 231.235 277.283 230.743 271.23ZM315.705 307.693C316.765 304.917 321.595 305.132 321.402 308.43C321.255 310.963 320.128 313.25 319.099 315.55L318.989 315.797C317.925 318.194 316.698 320.444 315.228 322.64C312.421 326.84 309.132 330.737 305.62 334.414C302.435 337.749 298.256 339.788 293.439 339.449C291.41 339.306 289.362 338.813 287.584 337.845C285.472 336.695 283.178 333.241 280.483 334.077C280.223 334.158 279.979 333.794 280.205 333.621C283.315 331.228 286.846 334.938 289.825 335.832C294.312 337.178 298.918 335.69 301.806 332.225C304.822 328.607 307.598 324.556 310.132 320.617C311.419 318.617 312.594 316.541 313.608 314.401C314.632 312.242 314.864 309.895 315.705 307.693ZM308.471 290.612C308.341 290.229 308.839 289.864 309.192 290.083C311.236 291.354 313.007 293.033 314.893 294.505C316.984 296.138 319.092 297.738 321.232 299.314C324.351 301.61 320.733 305.839 317.987 303.33C314.229 299.897 310.114 295.409 308.471 290.612ZM297.249 277.178C298.079 274.12 302.991 275.381 302.275 278.404L302.252 278.496C300.896 283.488 302.827 288.571 306.948 291.808L307.1 291.926C309.708 293.919 306.013 297.403 303.432 295.429C297.795 291.121 295.451 283.802 297.249 277.178Z" fill="black"/>
<path fill-rule="evenodd" clip-rule="evenodd" d="M349.894 187.302C348.246 161.415 339.47 132.066 313.64 119.356C256.696 97.4821 181.827 152.566 177.863 208.838C176.481 228.1 187.655 249.148 208.075 254.504C212.615 260.261 219.481 263.777 226.257 266.828C306.972 306.909 359.11 274.328 349.894 187.302Z" fill="white"/>
<path fill-rule="evenodd" clip-rule="evenodd" d="M368.282 171.199C365.43 163.616 362.417 156.092 359.247 148.625C356.16 141.359 353.371 133.935 349.537 127.013C326.64 85.6702 285.001 85.6702 263.478 91.0722C252.316 86.4693 231.409 87.7676 219.787 91.9212C200.971 98.6454 178.035 125.097 170.193 136.981C152.879 163.221 142.074 198.145 153.575 228.466C155.078 232.429 156.995 236.099 159.153 239.636C157.794 241.4 156.229 243.071 154.495 244.712C149.343 249.59 144.192 254.308 139.741 259.81C135.319 265.279 131.652 271.093 128.923 277.505C123.776 289.595 123.529 303.286 130.333 314.823C136.252 324.861 146.739 332.336 158.553 333.049C159.16 333.13 159.767 333.204 160.377 333.262C161.943 335.73 163.852 338.003 166.03 339.984C172.705 346.06 188.615 349.177 197.689 349.377C198.155 349.735 198.624 350.093 199.094 350.446C204.646 354.629 210.473 358.849 216.848 361.825C221.165 363.843 226.827 365.529 231.331 364.072C233.375 365.379 236.728 365.104 238.754 364.035C242.084 362.278 244.793 359.115 246.441 355.878C250.437 348.016 249.476 339.414 248.45 331.015C247.32 321.739 246.233 312.458 245.128 303.181C244.263 295.927 243.359 288.553 241.054 281.565C239.863 277.944 238.302 274.465 236.284 271.194C236.336 270.919 236.327 270.644 236.245 270.386C235.584 268.33 234.219 267.253 232.601 265.854C232.392 265.675 232.184 265.492 231.979 265.305C231.171 264.423 230.305 263.603 229.379 262.908C229.022 262.562 228.67 262.213 228.318 261.863C225.392 258.929 222.626 255.845 220.17 252.541C217.787 249.336 215.634 245.99 213.586 242.582C211.504 239.115 210.125 235.29 208.047 231.848C207.868 231.553 207.416 231.495 207.164 231.74C206.521 232.377 206.107 233.084 206.186 233.829L205.864 233.875C205.742 232.751 204.66 231.836 203.19 232.081C200.99 232.448 199.181 232.585 197.276 231.886C197.611 229.759 197.92 227.628 198.224 225.493C198.781 221.565 199.298 217.623 199.742 213.682C200.816 213.928 201.881 214.282 202.925 214.731C204.412 215.368 205.816 216.225 207.016 217.278C208.199 218.318 209.016 219.721 210.46 220.445C212.121 221.273 214.126 219.904 213.639 218.106C212.652 214.473 207.064 212.392 203.607 211.705C202.42 211.468 201.207 211.368 199.994 211.393C200.268 208.863 200.511 206.333 200.711 203.798C200.807 202.599 200.894 201.401 200.977 200.198C203.664 199.42 206.542 199.187 209.338 199.553C210.26 200.256 211.182 200.951 212.073 201.655C214.904 203.894 217.722 206.145 220.504 208.438C220.757 208.642 221.004 208.846 221.257 209.054C222.909 210.415 224.97 209.067 224.692 207.14C222.422 191.35 232.527 178.79 244.359 169.06C257.455 158.285 281.266 157.03 296.841 138.367C304.015 139.764 320.03 143.914 326.64 153.994C335.893 168.119 334.684 180.775 335.388 196.798C336.093 212.833 337.884 229.559 334.079 245.37C330.57 259.949 321.07 272.405 306.329 278.131C305.964 278.273 305.594 278.41 305.225 278.543C297.602 281.294 289.284 282.073 281.266 280.624C272.391 279.018 264.982 275.131 257.599 270.349C257.173 270.078 256.551 270.636 256.873 271.044C266.604 283.388 285.719 287.512 300.881 284.253C301.59 284.099 302.294 283.933 302.994 283.75C299.603 293.085 300.285 303.331 304.703 312.42C307.36 317.889 311.412 322.621 316.347 326.354C321.787 330.466 328.535 333.787 332.31 339.559C335.766 344.849 334.74 350.792 328.822 353.847C327.331 354.621 326.757 357.122 328.235 358.221C328.801 358.637 329.366 359.061 329.944 359.478C333.258 361.871 342.358 366.365 343.832 366.532C356.92 368.017 365.721 358.82 371.361 347.97C377.983 335.235 376.261 319.716 368.965 307.588C363.112 297.858 351.585 288.27 356.168 275.955C357.803 271.556 361.147 267.806 364.395 264.418C368.1 260.56 372.083 256.948 375.635 252.953C379.166 248.987 382.297 244.671 384.045 239.693C386.597 232.419 385.327 224.553 383.41 217.29C379.301 201.7 373.965 186.319 368.282 171.199Z" fill="black"/>
<path fill-rule="evenodd" clip-rule="evenodd" d="M305.907 252.27C302.697 253.158 299.252 253.237 295.98 252.32C293.012 251.488 289.965 249.658 287.78 247.235C285.84 245.083 284.583 242.468 284.633 239.677C284.638 239.358 284.758 239.092 284.941 238.886C285.139 238.663 285.415 238.51 285.711 238.444C286.015 238.376 286.336 238.4 286.61 238.519C286.858 238.627 287.07 238.809 287.203 239.076C287.539 239.497 287.873 239.912 288.209 240.316C290.908 243.499 293.522 245.877 297.58 246.731C299.782 247.194 301.981 246.988 303.999 246.282C306.159 245.526 308.112 244.196 309.642 242.495C310.333 241.726 311.15 241.412 311.948 241.407C312.853 241.401 313.747 241.802 314.42 242.444C315.082 243.075 315.526 243.932 315.566 244.828C315.601 245.615 315.332 246.437 314.617 247.171C312.262 249.586 309.21 251.356 305.907 252.27ZM305.808 212.403C309.098 214.314 314.112 218.768 310.572 223.504C306.405 227.679 300.406 222.892 297.45 220.726C294.709 219.048 291.629 223.364 294.173 225.324C315.534 240.429 324.203 212.903 307.472 210.157C305.63 209.855 304.946 211.812 305.808 212.403ZM275.027 203.998C273.97 203.352 272.726 203.13 271.347 203.729C270.27 204.197 268.38 205.757 267.065 207.808C266.165 209.211 265.527 210.857 265.66 212.571C265.691 212.97 265.537 213.263 265.294 213.48C265.102 213.652 264.825 213.778 264.499 213.817C264.223 213.85 263.913 213.82 263.662 213.745C263.183 213.603 262.93 213.306 262.835 213.064C261.914 210.728 262.31 208.122 263.342 205.771C264.735 202.597 267.264 199.939 268.922 199.082C271.757 197.615 275.102 197.547 277.942 199.042C280.359 200.314 281.871 202.368 283.374 204.461C283.694 204.906 284.011 205.348 284.339 205.782C284.996 206.651 285.061 207.514 284.807 208.253C284.525 209.073 283.806 209.764 282.907 210.126C282.077 210.46 281.113 210.507 280.26 210.164C279.539 209.873 278.878 209.308 278.46 208.347C277.755 206.73 276.581 204.946 275.027 203.998ZM328.739 207.595C328.015 207.956 327.448 208.064 326.645 207.834C326.201 207.707 325.761 207.463 325.418 207.134C325.077 206.809 324.831 206.404 324.736 205.955C324.5 204.847 323.866 203.81 322.961 203.134C322.188 202.556 321.212 202.25 320.13 202.423C318.962 202.609 317.849 203.324 317.083 204.168C316.827 204.45 316.626 204.771 316.424 205.089C316.046 205.684 315.679 206.238 315.159 206.675C314.961 206.841 314.664 206.957 314.376 206.957C314.258 206.957 314.14 206.939 314.026 206.905C312.864 205.79 312.64 204.945 312.678 204.107C312.717 203.227 313.08 202.337 313.667 201.506C315.043 199.558 317.655 197.96 319.418 197.598C321.832 197.103 324.23 197.698 326.152 198.985C328.13 200.311 329.595 202.368 330.052 204.687C330.162 205.245 330.116 205.848 329.893 206.37C329.675 206.881 329.296 207.318 328.739 207.595ZM280.352 183.223C278.903 184.571 277.188 184.78 275.453 184.966C274.49 185.07 273.72 185.154 272.963 185.317C270.882 185.766 268.824 186.442 266.948 187.415C264.986 188.433 262.847 189.66 261.309 191.232C260.943 191.606 260.599 191.998 260.253 192.392C259.939 192.75 259.635 193.096 259.316 193.429C258.948 193.811 258.6 194.212 258.253 194.612C258.039 194.949 257.996 195.032 257.953 195.118C257.888 195.248 257.813 195.393 257.726 195.549C257.608 195.762 257.47 195.996 257.325 196.208C257.083 196.595 256.954 196.702 256.842 196.749C256.656 196.828 256.48 196.867 256.31 196.846C256.149 196.826 255.998 196.753 255.849 196.633C255.106 196.032 254.886 195.047 254.909 194.002C254.943 192.415 255.556 190.658 256.121 189.578C257.434 187.069 259.256 184.46 261.446 182.587C263.945 180.449 266.68 178.831 269.821 177.715C271.773 177.022 274.032 176.386 276.159 176.466C277.689 176.524 279.151 176.958 280.357 178.044C281.098 178.71 281.454 179.657 281.454 180.604C281.454 181.57 281.085 182.542 280.352 183.223ZM331.686 195.569C331.594 195.713 331.466 195.813 331.324 195.872C331.175 195.935 331.009 195.953 330.85 195.927C330.691 195.902 330.541 195.833 330.421 195.728C330.306 195.628 330.219 195.494 330.18 195.331C329.218 191.296 327.35 188.293 323.364 186.357C321.403 185.405 319.148 184.8 317.013 184.318C316.393 184.177 315.737 184.086 315.077 183.994C313.008 183.706 310.924 183.376 309.576 181.778C308.763 180.816 308.422 179.586 308.615 178.461C308.796 177.401 309.445 176.43 310.623 175.847C313.557 174.399 317.202 175.82 320.165 177.031C320.384 177.121 320.6 177.209 320.811 177.294C323.708 178.462 326.351 180.004 328.523 182.209C330.246 183.958 331.843 186.544 332.486 189.204C333.021 191.417 332.895 193.676 331.686 195.569Z" fill="black"/>
<path fill-rule="evenodd" clip-rule="evenodd" d="M342.549 216.129C339.615 219.893 334.176 221.092 329.16 220.678C318.34 219.683 314.935 207.946 314.58 198.824C321.835 200.774 313.966 186.967 338.768 185.449C347.511 184.753 345.101 189.797 348.964 193.481C348.884 201.215 347.537 209.618 342.549 216.129ZM291.014 207.242C284.626 235.814 249.646 229.018 245.971 203.262C249.364 200.975 248.47 195.327 252.686 193.281C259.367 189.204 267.718 189.378 275.305 189.474C285.002 190.11 287.765 193.947 292.747 198.133C292.507 200.929 291.816 204.243 291.014 207.242ZM356.406 180.717C356.048 180.66 355.689 180.607 355.329 180.556C355.049 180.404 354.72 180.287 354.338 180.217C353.464 180.005 352.597 179.862 351.73 179.785C339.298 177.113 310.536 180.907 309.349 191.041C305.39 192.303 301.964 191.172 297.375 191.285C293.882 177.341 233.496 179.309 230.592 187.716C230.581 187.713 230.57 187.71 230.559 187.707C227.768 186.882 223.655 187.081 220.461 186.95C213.641 186.814 206.813 187.394 200.141 188.768C187.646 190.665 170.593 192.885 179.283 207.788C179.285 207.79 179.286 207.793 179.289 207.795L179.29 207.794C180.788 209.26 183.329 208.08 183.424 206.095C180.502 199.035 187.101 198.187 192.178 196.158C204.812 191.823 217.674 191.222 230.74 192.563C231.723 193.669 233.214 194.633 234.791 195.137C243.527 196.522 238.923 202.711 244.445 203.612C243.431 225.187 270.857 236.964 286.748 222.781C293.092 216.856 294.605 208.08 296.076 200.169C296.854 200.002 297.348 199.595 297.637 199.058C299.508 197.274 300.683 195.627 304.382 195.137C308.081 194.648 310.928 195.63 311.314 195.931C311.411 196.118 311.515 196.305 311.636 196.492C311.805 196.772 312.035 196.994 312.297 197.17C308.644 218.654 326.107 232.242 343.737 221.099C351.397 214.216 353.016 203.679 353.336 194.275C354.374 193.676 355.031 192.516 354.672 191.058C354.176 189.048 355.338 187.307 357.188 186.433C359.592 185.299 359.167 181.154 356.406 180.717Z" fill="black"/>
</svg>
